# xmcd CD database file
#
# Track frame offsets:
#	150
#	20253
#	39380
#	57682
#	72534
#	99386
#	116413
#	145440
#	176117
#	208294
#
# Disc length: 2977 seconds
#
# Revision: 0
# Processed by: cddbd v1.5.1PL0 Copyright (c) Steve Scherf et al.
# Submitted via: CDex 1.51
#
DISCID=990b9f0a
DTITLE=salvador candel and carlos fiel - tengo un gran amor
DYEAR=1996
DGENRE=New Age
TTITLE0=Tengo un gran amor
TTITLE1=Colores del amanecer
TTITLE2=Encuentros luminosos
TTITLE3=Concion para un amigo
TTITLE4=Reflejos del vacio
TTITLE5=Bailando a la sombra de un arbol
TTITLE6=La hora de las ofrendas
TTITLE7=Eturna tarde de otono
TTITLE8=Estoy hecho de ti
TTITLE9=Masta pronto
EXTD=YEAR: 1996
EXTT0=
EXTT1=
EXTT2=
EXTT3=
EXTT4=
EXTT5=
EXTT6=
EXTT7=
EXTT8=
EXTT9=
PLAYORDER=
